<svg id="eeiufpsab1dd1" xmlns="http://www.w3.org/2000/svg" xmlns:xlink="http://www.w3.org/1999/xlink" viewBox="0 0 433.500000 258.100000" shape-rendering="geometricPrecision" text-rendering="geometricPrecision"><style><![CDATA[#eeiufpsab1dd5 {animation: eeiufpsab1dd5_c_o 3000ms linear 1 normal forwards}@keyframes eeiufpsab1dd5_c_o { 0% {opacity: 0} 20% {opacity: 1} 100% {opacity: 1} }#eeiufpsab1dd7 {animation: eeiufpsab1dd7_c_o 3000ms linear 1 normal forwards}@keyframes eeiufpsab1dd7_c_o { 0% {opacity: 0} 72% {opacity: 0} 74% {opacity: 1} 100% {opacity: 1} }#eeiufpsab1dd8 {animation: eeiufpsab1dd8_c_o 3000ms linear 1 normal forwards}@keyframes eeiufpsab1dd8_c_o { 0% {opacity: 0} 66% {opacity: 0} 68% {opacity: 1} 100% {opacity: 1} }#eeiufpsab1dd9 {animation: eeiufpsab1dd9_c_o 3000ms linear 1 normal forwards}@keyframes eeiufpsab1dd9_c_o { 0% {opacity: 0} 62% {opacity: 0} 64% {opacity: 1} 100% {opacity: 1} }#eeiufpsab1dd10 {animation: eeiufpsab1dd10_c_o 3000ms linear 1 normal forwards}@keyframes eeiufpsab1dd10_c_o { 0% {opacity: 0} 58% {opacity: 0} 60% {opacity: 1} 100% {opacity: 1} }#eeiufpsab1dd11 {animation: eeiufpsab1dd11_c_o 3000ms linear 1 normal forwards}@keyframes eeiufpsab1dd11_c_o { 0% {opacity: 0} 54% {opacity: 0} 56% {opacity: 1} 100% {opacity: 1} }#eeiufpsab1dd12 {animation: eeiufpsab1dd12_c_o 3000ms linear 1 normal forwards}@keyframes eeiufpsab1dd12_c_o { 0% {opacity: 0} 48% {opacity: 0} 50% {opacity: 1} 100% {opacity: 1} }#eeiufpsab1dd13 {animation: eeiufpsab1dd13_c_o 3000ms linear 1 normal forwards}@keyframes eeiufpsab1dd13_c_o { 0% {opacity: 0} 42% {opacity: 0} 44% {opacity: 1} 100% {opacity: 1} }#eeiufpsab1dd14 {animation: eeiufpsab1dd14_c_o 3000ms linear 1 normal forwards}@keyframes eeiufpsab1dd14_c_o { 0% {opacity: 0} 38% {opacity: 0} 40% {opacity: 1} 100% {opacity: 1} }#eeiufpsab1dd15 {animation: eeiufpsab1dd15_c_o 3000ms linear 1 normal forwards}@keyframes eeiufpsab1dd15_c_o { 0% {opacity: 0} 32% {opacity: 0} 34% {opacity: 1} 100% {opacity: 1} }#eeiufpsab1dd16 {animation: eeiufpsab1dd16_c_o 3000ms linear 1 normal forwards}@keyframes eeiufpsab1dd16_c_o { 0% {opacity: 0} 28% {opacity: 0} 30% {opacity: 1} 100% {opacity: 1} }#eeiufpsab1dd18_to {animation: eeiufpsab1dd18_to__to 3000ms linear 1 normal forwards}@keyframes eeiufpsab1dd18_to__to { 0% {transform: translate(252.262980px,188.527276px)} 20% {transform: translate(252.262980px,188.527276px)} 80% {transform: translate(67.728783px,188.527276px)} 100% {transform: translate(95.849995px,164.800003px)} }#eeiufpsab1dd18_ts {animation: eeiufpsab1dd18_ts__ts 3000ms linear 1 normal forwards}@keyframes eeiufpsab1dd18_ts__ts { 0% {transform: scale(3.660000,3.660000)} 80% {transform: scale(3.660000,3.660000)} 100% {transform: scale(1,1)} }#eeiufpsab1dd18 {animation: eeiufpsab1dd18_c_o 3000ms linear 1 normal forwards}@keyframes eeiufpsab1dd18_c_o { 0% {opacity: 0} 20% {opacity: 1} 100% {opacity: 1} }#eeiufpsab1dd19 {animation: eeiufpsab1dd19_c_o 3000ms linear 1 normal forwards}@keyframes eeiufpsab1dd19_c_o { 0% {opacity: 0} 74% {opacity: 0} 76% {opacity: 1} 100% {opacity: 1} }#eeiufpsab1dd20 {animation: eeiufpsab1dd20_c_o 3000ms linear 1 normal forwards}@keyframes eeiufpsab1dd20_c_o { 0% {opacity: 0} 62% {opacity: 0} 64% {opacity: 1} 100% {opacity: 1} }#eeiufpsab1dd21 {animation: eeiufpsab1dd21_c_o 3000ms linear 1 normal forwards}@keyframes eeiufpsab1dd21_c_o { 0% {opacity: 0} 50% {opacity: 0} 52% {opacity: 1} 100% {opacity: 1} }#eeiufpsab1dd22 {animation: eeiufpsab1dd22_c_o 3000ms linear 1 normal forwards}@keyframes eeiufpsab1dd22_c_o { 0% {opacity: 0} 38% {opacity: 0} 40% {opacity: 1} 100% {opacity: 1} }#eeiufpsab1dd23 {animation: eeiufpsab1dd23_c_o 3000ms linear 1 normal forwards}@keyframes eeiufpsab1dd23_c_o { 0% {opacity: 0} 28% {opacity: 0} 30% {opacity: 1} 100% {opacity: 1} }]]></style><g id="eeiufpsab1dd2"><g id="eeiufpsab1dd3"><g id="eeiufpsab1dd4"><path id="eeiufpsab1dd5" d="M331,0.700000L330.400000,0L329.800000,0.700000C321,10.200000,315.100000,19.700000,312.200000,29.100000C307.800000,26.300000,303.100000,23.900000,298.200000,22.200000L297.400000,21.900000L297.100000,22.700000C295.200000,29.300000,294.400000,36.200000,294.800000,43.100000C291.500000,42.400000,288.200000,42,284.800000,42.100000C276.900000,42.200000,269.100000,43.700000,261.700000,46.500000L260.900000,46.800000L261.100000,47.600000C264,56,268.500000,63.700000,274.300000,70.400000C270.900000,72.300000,267.600000,74.400000,264.600000,76.900000L263.900000,77.500000L264.500000,78.200000C265.100000,78.900000,279.800000,96,299.900000,96L299.900000,96C310.200000,96,320,91.400000,329.100000,82.400000L329.100000,258.400000L331.700000,258.400000L331.700000,79.600000C335.100000,76.800000,348.700000,65,350.500000,46.700000C352,31.700000,345.400000,16.200000,331,0.700000ZM298.400000,24.100000C303,25.800000,307.500000,28.100000,311.600000,30.800000C310.200000,36,309.700000,41.400000,310.200000,46.800000C310.300000,48,310.500000,49.100000,310.700000,50.200000C306.400000,47.100000,301.600000,44.900000,296.500000,43.500000C296.100000,36.900000,296.800000,30.400000,298.400000,24.100000ZM325.200000,73.800000C320,68.400000,316,61.900000,313.600000,54.700000C320,60.700000,325,68.100000,328.200000,76.300000C327.500000,75.600000,326.400000,74.700000,325.200000,73.800000ZM319.900000,70.200000C315.100000,67.300000,309.700000,65.300000,304.200000,64.400000C303.200000,63.200000,302.300000,61.900000,301.500000,60.600000C298.800000,55.900000,297.200000,50.700000,296.700000,45.400000C302,46.900000,307,49.400000,311.300000,52.800000C313,59.100000,315.900000,65,319.900000,70.200000ZM324.100000,75C325.200000,76.100000,326.200000,77.100000,327,77.800000C318.100000,75.500000,311.100000,71.800000,306.100000,66.400000C312.600000,68,318.800000,70.900000,324.100000,75ZM327.400000,79.700000C320.900000,82.300000,314.100000,83.700000,307.100000,83.800000L307.100000,83.800000C293.800000,83.800000,284.100000,77.800000,277.100000,70.600000C283.400000,67.300000,290.400000,65.500000,297.500000,65.400000C299.400000,65.400000,301.400000,65.600000,303.300000,65.800000C308.800000,72.600000,316.900000,77.300000,327.400000,79.700000L327.400000,79.700000ZM330.200000,76.500000C328.300000,71.300000,323.100000,60,312.900000,51.700000C312.500000,50,312.200000,48.300000,312,46.500000C311.500000,41.500000,311.900000,36.500000,313.200000,31.700000C334.200000,46.900000,331.800000,68.800000,330.200000,76.500000L330.200000,76.500000ZM263,47.700000C270,45.200000,277.300000,43.800000,284.700000,43.700000C288.100000,43.700000,291.500000,44.100000,294.800000,44.800000C295.300000,50.600000,297.100000,56.300000,300,61.400000C300.500000,62.300000,301.100000,63.200000,301.700000,64.100000C300.300000,63.900000,298.900000,63.900000,297.400000,63.800000C289.800000,63.900000,282.400000,65.800000,275.700000,69.400000C270.200000,63,265.900000,55.700000,263,47.700000L263,47.700000ZM299.800000,94C282.700000,94,269.300000,80.600000,266.400000,77.400000C269.300000,75.200000,272.400000,73.200000,275.600000,71.500000C282.800000,79.100000,293.100000,85.500000,307.200000,85.500000L307.200000,85.500000C314,85.400000,320.700000,84.100000,327,81.700000C318.400000,89.900000,309.300000,94,299.800000,94ZM348.700000,46.500000C347.100000,62.400000,336.200000,73.300000,331.700000,77.200000C333.300000,69.500000,336,45.800000,313.600000,30C316.300000,20.900000,321.900000,11.700000,330.300000,2.400000C344,17.500000,350.200000,32.300000,348.700000,46.500000L348.700000,46.500000Z" opacity="0" fill="rgb(255,255,255)" stroke="none" stroke-width="1"/><g id="eeiufpsab1dd6"><path id="eeiufpsab1dd7" d="M145.100000,218.100000C146.300000,219.200000,147.300000,220.800000,148.700000,225.400000L148.900000,226L147.900000,226L147.800000,225.700000C146.200000,220.400000,145.200000,219.300000,143.700000,218.300000L137.500000,218.300000L137.500000,226.100000L136.500000,226.100000L136.500000,225.600000L136.500000,210L136.500000,209.500000L137,209.500000L143.800000,209.500000C146.400000,209.400000,148.600000,211.300000,148.700000,213.900000C148.600000,216,147.100000,217.700000,145.100000,218.100000ZM142.300000,217.300000L143.900000,217.300000C145.800000,217.600000,147.500000,216.200000,147.800000,214.300000C148.100000,212.400000,146.700000,210.700000,144.800000,210.400000C144.500000,210.400000,144.200000,210.400000,143.900000,210.400000L137.600000,210.400000L137.600000,217.300000L142.300000,217.300000Z" opacity="0" fill="rgb(255,255,255)" stroke="none" stroke-width="1"/><path id="eeiufpsab1dd8" d="M163.800000,209.500000L164.300000,209.500000L164.300000,210.500000L153.600000,210.500000L153.600000,217.300000L161.500000,217.300000L161.500000,218.300000L153.600000,218.300000L153.600000,225.100000L164.300000,225.100000L164.300000,226.100000L152.600000,226.100000L152.600000,209.500000L163.800000,209.500000Z" opacity="0" fill="rgb(255,255,255)" stroke="none" stroke-width="1"/><path id="eeiufpsab1dd9" d="M178,213.900000L177,213.900000C177,212,175,210.500000,172.600000,210.500000C170.200000,210.500000,168.200000,212,168.200000,213.900000C168.200000,217.300000,178.500000,217.300000,178.400000,221.700000C178.400000,224,175.800000,226.100000,172.600000,226.100000C169.300000,226.100000,166.800000,224,166.800000,221.700000L167.800000,221.700000C167.800000,223.600000,170.100000,225.100000,172.700000,225.100000C175.300000,225.100000,177.600000,223.600000,177.600000,221.700000C177.600000,218.200000,167.400000,218.300000,167.400000,213.900000C167.400000,211.500000,169.700000,209.500000,172.800000,209.500000C175.700000,209.500000,178,211.500000,178,213.900000Z" opacity="0" fill="rgb(255,255,255)" stroke="none" stroke-width="1"/><path id="eeiufpsab1dd10" d="M186.800000,209.500000L192.600000,209.500000L192.600000,210.500000L186.800000,210.500000L186.800000,226.100000L185.800000,226.100000L185.800000,210.500000L179.900000,210.500000L179.900000,209.500000L186.800000,209.500000L186.800000,209.500000Z" opacity="0" fill="rgb(255,255,255)" stroke="none" stroke-width="1"/><path id="eeiufpsab1dd11" d="M196.400000,222.200000L196.100000,222.200000L194.500000,225.800000L194.400000,226.100000L193.300000,226.100000L193.600000,225.400000L200.400000,209.800000L200.500000,209.500000L201.100000,209.500000L201.200000,209.800000L208,225.400000L208.300000,226.100000L207.200000,226.100000L207.100000,225.800000L205.500000,222.200000C205.700000,222.200000,196.400000,222.200000,196.400000,222.200000ZM205.300000,221.200000L200.900000,211.200000L196.500000,221.200000L205.300000,221.200000Z" opacity="0" fill="rgb(255,255,255)" stroke="none" stroke-width="1"/><path id="eeiufpsab1dd12" d="M210.600000,210L210.600000,209.500000L211.600000,209.500000L211.600000,210L211.600000,220.700000C211.900000,223.400000,214.300000,225.300000,217,225C219.300000,224.700000,221.100000,222.900000,221.300000,220.700000L221.300000,209.500000L222.300000,209.500000L222.300000,210L222.300000,220.700000C222,223.900000,219.200000,226.300000,216,226.100000C213.100000,225.900000,210.900000,223.600000,210.600000,220.700000L210.600000,210Z" opacity="0" fill="rgb(255,255,255)" stroke="none" stroke-width="1"/><path id="eeiufpsab1dd13" d="M235.200000,218.100000C236.500000,219.200000,237.500000,220.800000,238.800000,225.400000L239,226L238,226L237.900000,225.700000C236.300000,220.400000,235.300000,219.300000,233.800000,218.300000L227.600000,218.300000L227.600000,226.100000L226.600000,226.100000L226.600000,225.600000L226.600000,210L226.600000,209.500000L227.100000,209.500000L233.900000,209.500000C236.500000,209.400000,238.700000,211.300000,238.800000,213.900000C238.700000,216,237.200000,217.800000,235.200000,218.100000ZM232.400000,217.300000L234,217.300000C235.900000,217.600000,237.600000,216.200000,237.900000,214.300000C238.200000,212.400000,236.800000,210.700000,234.900000,210.400000C234.600000,210.400000,234.300000,210.400000,234,210.400000L227.700000,210.400000L227.700000,217.300000C229.200000,217.300000,230.800000,217.300000,232.400000,217.300000Z" opacity="0" fill="rgb(255,255,255)" stroke="none" stroke-width="1"/><path id="eeiufpsab1dd14" d="M243.600000,222.200000L243.300000,222.200000L241.700000,225.800000L241.600000,226.100000L240.500000,226.100000L240.800000,225.400000L247.600000,209.800000L247.700000,209.500000L248.300000,209.500000L248.400000,209.800000L255.200000,225.400000L255.500000,226.100000L254.400000,226.100000L254.300000,225.800000L252.700000,222.200000L243.600000,222.200000ZM252.500000,221.200000L248.100000,211.200000L243.700000,221.200000L252.500000,221.200000Z" opacity="0" fill="rgb(255,255,255)" stroke="none" stroke-width="1"/><path id="eeiufpsab1dd15" d="M259.300000,225.600000L259.300000,226.100000L258.300000,226.100000L258.300000,209.500000L259,209.500000L259.100000,209.700000L269.400000,224.100000L269.400000,210L269.400000,209.500000L270.400000,209.500000L270.400000,210L270.400000,225.600000L270.400000,226.100000L269.700000,226.100000L269.600000,225.900000L259.300000,211.500000L259.300000,225.600000Z" opacity="0" fill="rgb(255,255,255)" stroke="none" stroke-width="1"/><path id="eeiufpsab1dd16" d="M280.300000,209.500000L286.100000,209.500000L286.100000,210.500000L280.300000,210.500000L280.300000,226.100000L279.300000,226.100000L279.300000,210.500000L273.400000,210.500000L273.400000,209.500000L280.300000,209.500000L280.300000,209.500000Z" opacity="0" fill="rgb(255,255,255)" stroke="none" stroke-width="1"/></g><g id="eeiufpsab1dd17"><g id="eeiufpsab1dd18_to" transform="translate(252.262980,188.527276)"><g id="eeiufpsab1dd18_ts" transform="scale(3.660000,3.660000)"><path id="eeiufpsab1dd18" d="M107.200000,177.600000L107.200000,157.600000L96,173.600000L84.600000,157.500000L84.600000,177.600000L82.800000,177.600000L82.800000,152L95.900000,170.600000L108.900000,152L108.900000,177.600000L107.200000,177.600000Z" transform="translate(-95.849995,-164.800003)" opacity="0" fill="rgb(255,255,255)" stroke="none" stroke-width="1"/></g></g><path id="eeiufpsab1dd19" d="M132.300000,171.200000L129.300000,177.600000L127.300000,177.600000L139.300000,152L150.600000,177.600000L148.700000,177.600000L145.800000,171.200000L132.300000,171.200000ZM139.200000,156.300000L133.100000,169.400000L145,169.400000L139.200000,156.300000Z" opacity="0" fill="rgb(255,255,255)" stroke="none" stroke-width="1"/><path id="eeiufpsab1dd20" d="M184,177.600000L173.500000,164.800000L176.600000,164.800000C178.200000,164.900000,179.800000,164.600000,181.300000,164.100000C182.200000,163.700000,183,163,183.600000,162.200000C184.200000,161.400000,184.600000,160.400000,184.600000,159.400000C184.600000,158.500000,184.300000,157.600000,183.800000,156.800000C183.200000,155.900000,182.400000,155.300000,181.500000,154.800000C180.400000,154.300000,179.200000,154,178,154L170.900000,154L170.900000,177.600000L169,177.600000L169,152.300000L177.800000,152.300000C178.900000,152.300000,180.100000,152.500000,181.200000,152.900000C182.200000,153.300000,183.100000,153.800000,183.900000,154.500000C184.600000,155.100000,185.200000,155.900000,185.600000,156.800000C186,157.600000,186.200000,158.500000,186.200000,159.400000C186.200000,160.800000,185.800000,162.100000,184.900000,163.200000C184.100000,164.300000,183.100000,165.100000,181.900000,165.600000C181.200000,165.900000,180.400000,166.200000,179.600000,166.300000C178.800000,166.400000,178,166.400000,177.200000,166.400000L186.400000,177.500000L184,177.600000Z" opacity="0" fill="rgb(255,255,255)" stroke="none" stroke-width="1"/><path id="eeiufpsab1dd21" d="M209.400000,171.200000L206.400000,177.600000L204.500000,177.600000L216.400000,152L227.700000,177.600000L225.800000,177.600000L223,171.200000L209.400000,171.200000ZM216.300000,156.300000L210.200000,169.400000L222.100000,169.400000L216.300000,156.300000Z" opacity="0" fill="rgb(255,255,255)" stroke="none" stroke-width="1"/><path id="eeiufpsab1dd22" d="M246.500000,177.600000L246.500000,152.300000L248.300000,152.300000L248.300000,177.600000L246.500000,177.600000Z" opacity="0" fill="rgb(255,255,255)" stroke="none" stroke-width="1"/><path id="eeiufpsab1dd23" d="M285.200000,167.800000C285.800000,168.700000,286.200000,169.800000,286.200000,170.900000C286.200000,171.900000,286,172.800000,285.500000,173.700000C285,174.600000,284.300000,175.400000,283.500000,176C281.600000,177.300000,279.400000,178,277.100000,177.900000C275.900000,177.900000,274.800000,177.700000,273.700000,177.400000C272.700000,177.100000,271.700000,176.600000,270.800000,176C269.400000,175.100000,268.500000,173.600000,268.100000,172L269.800000,171.100000C269.900000,172.500000,270.700000,173.900000,271.900000,174.600000C272.600000,175.100000,273.400000,175.500000,274.300000,175.800000C275.200000,176.100000,276.200000,176.200000,277.200000,176.200000C279.100000,176.300000,280.900000,175.700000,282.500000,174.600000C283.700000,173.800000,284.500000,172.500000,284.600000,171C284.600000,170.200000,284.300000,169.400000,283.800000,168.700000C283.200000,168,282.500000,167.300000,281.700000,166.900000C280.200000,166.300000,278.700000,165.900000,277.100000,165.800000C276.900000,165.800000,276.300000,165.700000,275.100000,165.500000C274.100000,165.400000,273.100000,165.100000,272.200000,164.600000C271,164,270,163.200000,269.200000,162.100000C268.500000,161.100000,268.100000,160,268.100000,158.800000C268.100000,157.800000,268.300000,156.900000,268.800000,156.100000C269.300000,155.200000,270,154.500000,270.800000,153.900000C271.700000,153.300000,272.700000,152.800000,273.700000,152.500000C274.800000,152.200000,276,152,277.100000,152C279.400000,152,281.600000,152.600000,283.500000,153.900000C284.900000,154.800000,285.800000,156.300000,286.100000,157.900000L284.400000,158.800000C284.400000,158.100000,284.200000,157.500000,283.800000,156.900000C283.400000,156.300000,282.900000,155.700000,282.300000,155.300000C281.600000,154.800000,280.700000,154.400000,279.900000,154.100000C279,153.800000,278,153.700000,277.100000,153.700000C276.100000,153.700000,275.200000,153.800000,274.200000,154.100000C273.300000,154.300000,272.500000,154.800000,271.800000,155.300000C271.200000,155.700000,270.600000,156.300000,270.200000,157C269.800000,157.600000,269.700000,158.200000,269.600000,158.900000C269.600000,159.800000,269.900000,160.600000,270.500000,161.300000C271.100000,162.100000,271.800000,162.700000,272.700000,163.200000C273.300000,163.500000,273.900000,163.700000,274.500000,163.800000C275.200000,163.900000,276,164,277.100000,164.200000L278.500000,164.400000C279.200000,164.500000,279.900000,164.600000,280.600000,164.800000C282.500000,165.200000,284.100000,166.300000,285.200000,167.800000L285.200000,167.800000Z" opacity="0" fill="rgb(255,255,255)" stroke="none" stroke-width="1"/></g></g></g></g></svg>